<!-- Generator: Adobe Illustrator 19.0.0, SVG Export Plug-In  -->
<svg version="1.1"
	 xmlns="http://www.w3.org/2000/svg" xmlns:xlink="http://www.w3.org/1999/xlink" xmlns:a="http://ns.adobe.com/AdobeSVGViewerExtensions/3.0/"
	 x="0px" y="0px" width="787.9px" height="138.5px" viewBox="0 0 787.9 138.5" style="enable-background:new 0 0 787.9 138.5;"
	 xml:space="preserve">
<defs>
</defs>
<g id="XMLID_15_">
	<path id="XMLID_96_" d="M17.5,3.5c0.8-2,2.2-3,4.2-3c2,0,3.4,1,4.2,3.1l17.1,44c0.7,1.9,0.2,3.2-1.5,3.8c-1.7,0.6-2.9,0-3.7-1.9
		l-3.9-9.8H9.3l-3.8,9.8c-0.8,1.9-2,2.6-3.7,1.9c-1.7-0.6-2.2-1.9-1.5-3.8L17.5,3.5z M21.6,7.8L11.5,34.4h20.4L21.6,7.8z"/>
	<path id="XMLID_94_" d="M57.4,10.4v38.2c0,2.1-0.9,3.1-2.7,3.1c-1.8,0-2.7-1-2.7-3.1V4.5c0-2.4,1.4-4,3.5-4c1.3,0,2.4,0.6,3.2,1.8
		l27.6,39.5V3.6c0-2.1,0.9-3.1,2.7-3.1c1.9,0,2.8,1,2.8,3.1v44.1c0,2.4-1.4,4-3.5,4c-1.3,0-2.4-0.6-3.2-1.8L57.4,10.4z"/>
	<path id="XMLID_91_" d="M108,51.3c-1.8-0.1-3.2-1.6-3.2-3.4V4.2c0-1.8,1.4-3.3,3.2-3.3h10.4c13.6,0,27.4,5.7,27.4,24.8
		c0,19.2-13.8,25.6-27.4,25.6H108z M110.2,6v40h8.9c10.8,0,21-5.4,21-20.4c0-14.5-10.2-19.7-21-19.7H110.2z"/>
	<path id="XMLID_88_" d="M173,32.7h-12.1v15.8c0,2.1-0.9,3.1-2.7,3.1c-1.8,0-2.7-1-2.7-3.1V4.2c0-1.8,1.4-3.3,3.2-3.3H173
		c5.6,0,10.1,1.4,13.4,4.3c3.4,2.9,5,6.8,5,11.6c0,7.8-4.7,13.4-12.4,15.3l10.7,14.8c1.2,1.7,1.2,3-0.1,4.1c-1.2,0.9-3,0.8-4.2-0.7
		L173,32.7z M160.9,6v21.5h12.9c7.5,0,12.2-3.7,12.2-10.8C186,9.9,181.3,6,173.8,6H160.9z"/>
	<path id="XMLID_86_" d="M206.2,51.3c-1.8,0-3.2-1.5-3.2-3.3V4.2c0-1.8,1.4-3.3,3.2-3.3h27.5c2,0,3,0.9,3,2.6c0,1.4-1,2.6-3,2.6
		h-25.3V23h24.5c2,0,3,0.9,3,2.6c0,1.4-1,2.6-3,2.6h-24.5v17.9h25.3c2,0,3,0.9,3,2.6c0,1.4-1,2.6-3,2.6H206.2z"/>
	<path id="XMLID_84_" d="M266.3,5.1c-6.6,0-11.5,3.5-11.5,8.6c0,4.8,3.6,7.7,10.7,8.9l5,0.9c9.8,1.7,15.3,6.6,15.3,14.4
		c0,4.1-1.7,7.5-5,10.2c-3.4,2.7-7.8,4-13.4,4c-7.8,0-14.1-3.3-17.9-7.3c-1.4-1.5-1.4-2.9-0.1-4.1s2.7-1.1,4.1,0.4
		c3.5,4,8.4,5.9,14.5,5.9c7.1,0,12.3-3.3,12.3-9c0-4.8-3.5-7.8-10.6-9.1l-6.2-1.1c-4.1-0.7-7.6-2.2-10.2-4.5s-4-5.4-4-9.3
		c0-4.2,1.7-7.6,5.2-10.2C257.9,1.3,262,0,266.7,0c6.6,0,11.9,2.1,15.9,6.2c1.4,1.5,1.4,2.9,0.1,4.1c-1.2,1.1-2.6,0.9-4.1-0.4
		C275.4,6.7,271.3,5.1,266.3,5.1z"/>
	<path id="XMLID_82_" d="M335.1,5.1c-6.6,0-11.5,3.5-11.5,8.6c0,4.8,3.6,7.7,10.7,8.9l5,0.9c9.8,1.7,15.3,6.6,15.3,14.4
		c0,4.1-1.7,7.5-5,10.2c-3.4,2.7-7.8,4-13.4,4c-7.8,0-14.1-3.3-17.9-7.3c-1.4-1.5-1.4-2.9-0.1-4.1s2.7-1.1,4.1,0.4
		c3.5,4,8.4,5.9,14.5,5.9c7.1,0,12.3-3.3,12.3-9c0-4.8-3.5-7.8-10.6-9.1l-6.2-1.1c-4.1-0.7-7.6-2.2-10.2-4.5s-4-5.4-4-9.3
		c0-4.2,1.7-7.6,5.2-10.2c3.5-2.5,7.6-3.8,12.2-3.8c6.6,0,11.9,2.1,15.9,6.2c1.4,1.5,1.4,2.9,0.1,4.1c-1.2,1.1-2.6,0.9-4.1-0.4
		C344.2,6.7,340.1,5.1,335.1,5.1z"/>
	<path id="XMLID_79_" d="M378.1,3.5c0.8-2,2.2-3,4.2-3c2,0,3.4,1,4.2,3.1l17.1,44c0.7,1.9,0.2,3.2-1.5,3.8c-1.7,0.6-2.9,0-3.7-1.9
		l-3.9-9.8h-24.6l-3.8,9.8c-0.8,1.9-2,2.6-3.7,1.9c-1.7-0.6-2.2-1.9-1.5-3.8L378.1,3.5z M382.2,7.8L372,34.4h20.4L382.2,7.8z"/>
	<path id="XMLID_77_" d="M418,10.4v38.2c0,2.1-0.9,3.1-2.7,3.1c-1.8,0-2.7-1-2.7-3.1V4.5c0-2.4,1.4-4,3.5-4c1.3,0,2.4,0.6,3.2,1.8
		l27.6,39.5V3.6c0-2.1,0.9-3.1,2.7-3.1c1.9,0,2.8,1,2.8,3.1v44.1c0,2.4-1.4,4-3.5,4c-1.3,0-2.4-0.6-3.2-1.8L418,10.4z"/>
	<path id="XMLID_75_" d="M496.3,0.9c1.9,0,2.9,0.9,2.9,2.6S498.3,6,496.3,6h-14v42.5c0,2.1-0.9,3.1-2.7,3.1c-1.8,0-2.7-1-2.7-3.1V6
		h-13.5c-1.9,0-2.9-0.9-2.9-2.6s0.9-2.6,2.9-2.6H496.3z"/>
	<path id="XMLID_72_" d="M516.2,3.5c0.8-2,2.2-3,4.2-3c2,0,3.4,1,4.2,3.1l17.1,44c0.7,1.9,0.2,3.2-1.5,3.8c-1.7,0.6-2.9,0-3.7-1.9
		l-3.9-9.8H508l-3.8,9.8c-0.8,1.9-2,2.6-3.7,1.9c-1.7-0.6-2.2-1.9-1.5-3.8L516.2,3.5z M520.3,7.8l-10.2,26.6h20.4L520.3,7.8z"/>
	<path id="XMLID_69_" d="M568.2,32.7h-12.1v15.8c0,2.1-0.9,3.1-2.7,3.1c-1.8,0-2.7-1-2.7-3.1V4.2c0-1.8,1.4-3.3,3.2-3.3h14.3
		c5.6,0,10.1,1.4,13.4,4.3c3.4,2.9,5,6.8,5,11.6c0,7.8-4.7,13.4-12.4,15.3l10.7,14.8c1.2,1.7,1.2,3-0.1,4.1c-1.2,0.9-3,0.8-4.2-0.7
		L568.2,32.7z M556.1,6v21.5H569c7.5,0,12.2-3.7,12.2-10.8C581.1,9.9,576.5,6,569,6H556.1z"/>
	<path id="XMLID_66_" d="M601.6,7.6c4.8-5.1,10.7-7.6,17.9-7.6s13.2,2.5,18,7.6c4.9,5,7.3,11.2,7.3,18.4c0,7.3-2.4,13.5-7.3,18.5
		c-4.8,5-10.9,7.6-18.1,7.6c-7.1,0-13.1-2.5-17.9-7.6c-4.8-5-7.1-11.2-7.1-18.5C594.4,18.8,596.8,12.7,601.6,7.6z M605.4,41
		c3.7,4,8.5,6,14.3,6c5.8,0,10.4-2,14.1-6c3.7-4,5.5-9,5.5-15c0-5.9-1.9-10.9-5.5-14.8c-3.7-4-8.4-6-14.1-6c-5.8,0-10.6,2-14.3,6
		c-3.7,4-5.5,8.9-5.5,14.8C599.9,32,601.7,37,605.4,41z"/>
	<path id="XMLID_64_" d="M672.5,5.1c-6.6,0-11.5,3.5-11.5,8.6c0,4.8,3.6,7.7,10.7,8.9l5,0.9c9.8,1.7,15.3,6.6,15.3,14.4
		c0,4.1-1.7,7.5-5,10.2c-3.4,2.7-7.8,4-13.4,4c-7.8,0-14.1-3.3-17.9-7.3c-1.4-1.5-1.4-2.9-0.1-4.1s2.7-1.1,4.1,0.4
		c3.5,4,8.4,5.9,14.5,5.9c7.1,0,12.3-3.3,12.3-9c0-4.8-3.5-7.8-10.6-9.1l-6.2-1.1c-4.1-0.7-7.6-2.2-10.2-4.5s-4-5.4-4-9.3
		c0-4.2,1.7-7.6,5.2-10.2c3.5-2.5,7.6-3.8,12.2-3.8c6.6,0,11.9,2.1,15.9,6.2c1.4,1.5,1.4,2.9,0.1,4.1c-1.2,1.1-2.6,0.9-4.1-0.4
		C681.6,6.7,677.5,5.1,672.5,5.1z"/>
	<path id="XMLID_62_" d="M719.2,5.1c-6.6,0-11.5,3.5-11.5,8.6c0,4.8,3.6,7.7,10.7,8.9l5,0.9c9.8,1.7,15.3,6.6,15.3,14.4
		c0,4.1-1.7,7.5-5,10.2c-3.4,2.7-7.8,4-13.4,4c-7.8,0-14.1-3.3-17.9-7.3c-1.4-1.5-1.4-2.9-0.1-4.1s2.7-1.1,4.1,0.4
		c3.5,4,8.4,5.9,14.5,5.9c7.1,0,12.3-3.3,12.3-9c0-4.8-3.5-7.8-10.6-9.1l-6.2-1.1c-4.1-0.7-7.6-2.2-10.2-4.5s-4-5.4-4-9.3
		c0-4.2,1.7-7.6,5.2-10.2c3.5-2.5,7.6-3.8,12.2-3.8c6.6,0,11.9,2.1,15.9,6.2c1.4,1.5,1.4,2.9,0.1,4.1c-1.2,1.1-2.6,0.9-4.1-0.4
		C728.2,6.7,724.1,5.1,719.2,5.1z"/>
	<path id="XMLID_59_" d="M762.1,3.5c0.8-2,2.2-3,4.2-3c2,0,3.4,1,4.2,3.1l17.1,44c0.7,1.9,0.2,3.2-1.5,3.8c-1.7,0.6-2.9,0-3.7-1.9
		l-3.9-9.8h-24.6l-3.8,9.8c-0.8,1.9-2,2.6-3.7,1.9c-1.7-0.6-2.2-1.9-1.5-3.8L762.1,3.5z M766.2,7.8l-10.2,26.6h20.4L766.2,7.8z"/>
	<path id="XMLID_57_" d="M7,134.9c0,2.1-0.9,3.1-2.7,3.1c-1.8,0-2.7-1-2.7-3.1v-45c0-2.1,0.9-3.1,2.7-3.1c1.8,0,2.7,1,2.7,3.1V134.9
		z"/>
	<path id="XMLID_55_" d="M25.5,96.8v38.2c0,2.1-0.9,3.1-2.7,3.1c-1.8,0-2.7-1-2.7-3.1V90.9c0-2.4,1.4-4,3.5-4c1.3,0,2.4,0.6,3.2,1.8
		l27.6,39.5V90c0-2.1,0.9-3.1,2.7-3.1c1.9,0,2.8,1,2.8,3.1v44.1c0,2.4-1.4,4-3.5,4c-1.3,0-2.4-0.6-3.2-1.8L25.5,96.8z"/>
	<path id="XMLID_52_" d="M76.1,137.7c-1.8-0.1-3.2-1.6-3.2-3.4V90.6c0-1.8,1.4-3.3,3.2-3.3h10.4c13.6,0,27.4,5.7,27.4,24.8
		c0,19.2-13.8,25.6-27.4,25.6H76.1z M78.3,92.4v40h8.9c10.8,0,21-5.4,21-20.4c0-14.5-10.2-19.7-21-19.7H78.3z"/>
	<path id="XMLID_50_" d="M122.7,90c0-2.1,0.9-3.1,2.7-3.1s2.7,1,2.7,3.1v27.9c0,4.5,1.2,8.1,3.6,11.1c2.4,2.9,5.8,4.3,10.1,4.3
		s7.7-1.4,10.1-4.4c2.4-3,3.6-6.6,3.6-11.1V90c0-2.1,0.9-3.1,2.7-3.1s2.7,1,2.7,3.1v27.9c0,6-1.7,11-5.1,14.8
		c-3.4,3.8-8.1,5.8-14,5.8s-10.7-1.9-14-5.8c-3.4-3.8-5.1-8.8-5.1-14.8V90z"/>
	<path id="XMLID_48_" d="M190.4,91.5c-6.6,0-11.5,3.5-11.5,8.6c0,4.8,3.6,7.7,10.7,8.9l5,0.9c9.8,1.7,15.3,6.6,15.3,14.4
		c0,4.1-1.7,7.5-5,10.2s-7.8,4-13.4,4c-7.8,0-14.1-3.3-17.9-7.3c-1.4-1.5-1.4-2.9-0.1-4.1s2.7-1.1,4.1,0.4c3.5,4,8.4,5.9,14.5,5.9
		c7.1,0,12.3-3.3,12.3-9c0-4.8-3.5-7.8-10.6-9.1l-6.2-1.1c-4.1-0.7-7.6-2.2-10.2-4.5c-2.7-2.3-4-5.4-4-9.3c0-4.2,1.7-7.6,5.2-10.2
		c3.5-2.5,7.6-3.8,12.2-3.8c6.6,0,11.9,2.1,15.9,6.2c1.4,1.5,1.4,2.9,0.1,4.1c-1.2,1.1-2.6,0.9-4.1-0.4
		C199.5,93.1,195.4,91.5,190.4,91.5z"/>
	<path id="XMLID_46_" d="M250.4,87.3c1.9,0,2.9,0.9,2.9,2.6s-0.9,2.6-2.9,2.6h-14v42.5c0,2.1-0.9,3.1-2.7,3.1c-1.8,0-2.7-1-2.7-3.1
		V92.4h-13.5c-1.9,0-2.9-0.9-2.9-2.6s0.9-2.6,2.9-2.6H250.4z"/>
	<path id="XMLID_43_" d="M279.1,119.1H267v15.8c0,2.1-0.9,3.1-2.7,3.1c-1.8,0-2.7-1-2.7-3.1V90.6c0-1.8,1.4-3.3,3.2-3.3h14.3
		c5.6,0,10.1,1.4,13.4,4.3c3.4,2.9,5,6.8,5,11.6c0,7.8-4.7,13.4-12.4,15.3l10.7,14.8c1.2,1.7,1.2,3-0.1,4.1c-1.2,0.9-3,0.8-4.2-0.7
		L279.1,119.1z M267,92.4V114h12.9c7.5,0,12.2-3.7,12.2-10.8c0-6.8-4.7-10.7-12.2-10.7H267z"/>
	<path id="XMLID_41_" d="M314.4,134.9c0,2.1-0.9,3.1-2.7,3.1c-1.8,0-2.7-1-2.7-3.1v-45c0-2.1,0.9-3.1,2.7-3.1c1.8,0,2.7,1,2.7,3.1
		V134.9z"/>
	<path id="XMLID_38_" d="M342.7,89.9c0.8-2,2.2-3,4.2-3c2,0,3.4,1,4.2,3.1l17.1,44c0.7,1.9,0.2,3.2-1.5,3.8c-1.7,0.6-2.9,0-3.7-1.9
		l-3.9-9.8h-24.6l-3.8,9.8c-0.8,1.9-2,2.6-3.7,1.9c-1.7-0.6-2.2-1.9-1.5-3.8L342.7,89.9z M346.8,94.2l-10.2,26.6h20.4L346.8,94.2z"
		/>
	<path id="XMLID_36_" d="M382.6,132.5h22.3c2,0,3,1.2,3,2.6c0,1.7-1,2.6-3,2.6h-24.5c-1.8,0-3.2-1.5-3.2-3.3V90
		c0-2.1,0.9-3.1,2.7-3.1c1.8,0,2.7,1,2.7,3.1V132.5z"/>
	<path id="XMLID_31_" d="M441.9,137.7c-1.8-0.1-3.2-1.6-3.2-3.4V90.6c0-1.8,1.4-3.3,3.2-3.3h10.4c13.6,0,27.4,5.7,27.4,24.8
		c0,19.2-13.8,25.6-27.4,25.6H441.9z M444.1,92.4v40h8.9c10.8,0,21-5.4,21-20.4c0-14.5-10.2-19.7-21-19.7H444.1z"/>
	<path id="XMLID_29_" d="M492.6,137.7c-1.8,0-3.2-1.5-3.2-3.3V90.6c0-1.8,1.4-3.3,3.2-3.3h27.5c2,0,3,0.9,3,2.6c0,1.4-1,2.6-3,2.6
		h-25.3v16.9h24.5c2,0,3,0.9,3,2.6c0,1.4-1,2.6-3,2.6h-24.5v17.9h25.3c2,0,3,0.9,3,2.6c0,1.4-1,2.6-3,2.6H492.6z"/>
	<path id="XMLID_27_" d="M552.8,91.5c-6.6,0-11.5,3.5-11.5,8.6c0,4.8,3.6,7.7,10.7,8.9l5,0.9c9.8,1.7,15.3,6.6,15.3,14.4
		c0,4.1-1.7,7.5-5,10.2c-3.4,2.7-7.8,4-13.4,4c-7.8,0-14.1-3.3-17.9-7.3c-1.4-1.5-1.4-2.9-0.1-4.1s2.7-1.1,4.1,0.4
		c3.5,4,8.4,5.9,14.5,5.9c7.1,0,12.3-3.3,12.3-9c0-4.8-3.5-7.8-10.6-9.1l-6.2-1.1c-4.1-0.7-7.6-2.2-10.2-4.5s-4-5.4-4-9.3
		c0-4.2,1.7-7.6,5.2-10.2c3.5-2.5,7.6-3.8,12.2-3.8c6.6,0,11.9,2.1,15.9,6.2c1.4,1.5,1.4,2.9,0.1,4.1c-1.2,1.1-2.6,0.9-4.1-0.4
		C561.8,93.1,557.7,91.5,552.8,91.5z"/>
	<path id="XMLID_25_" d="M586.5,134.9c0,2.1-0.9,3.1-2.7,3.1c-1.8,0-2.7-1-2.7-3.1v-45c0-2.1,0.9-3.1,2.7-3.1c1.8,0,2.7,1,2.7,3.1
		V134.9z"/>
	<path id="XMLID_23_" d="M621.6,138.5c-7.3,0-13.3-2.5-18.1-7.6s-7.2-11.2-7.2-18.4c0-7.3,2.4-13.4,7.1-18.5
		c4.8-5.1,10.7-7.6,17.9-7.6c7,0,12.7,2.3,17.4,6.9c1.4,1.4,1.5,2.7,0.3,4c-1.3,1.2-2.7,1.2-4-0.2c-3.7-3.7-8.2-5.5-13.6-5.5
		c-5.5,0-10.2,2-14,6c-3.7,4-5.5,9-5.5,15c0,5.8,1.9,10.8,5.6,14.8c3.8,4,8.6,6,14.3,6s10.3-1.8,14-5.5v-10.2h-11.7
		c-2,0-3-1.2-3-2.6c0-1.7,1-2.6,3-2.6h13.8c1.8,0,3.2,1.5,3.2,3.3v12.2c0,1.2-0.4,2.2-1.3,3.1C634.6,136,628.6,138.5,621.6,138.5z"
		/>
	<path id="XMLID_21_" d="M657.3,96.8v38.2c0,2.1-0.9,3.1-2.7,3.1c-1.8,0-2.7-1-2.7-3.1V90.9c0-2.4,1.4-4,3.5-4
		c1.3,0,2.4,0.6,3.2,1.8l27.6,39.5V90c0-2.1,0.9-3.1,2.7-3.1c1.9,0,2.8,1,2.8,3.1v44.1c0,2.4-1.4,4-3.5,4c-1.3,0-2.4-0.6-3.2-1.8
		L657.3,96.8z"/>
	<path id="XMLID_19_" d="M707.8,137.7c-1.8,0-3.2-1.5-3.2-3.3V90.6c0-1.8,1.4-3.3,3.2-3.3h27.5c2,0,3,0.9,3,2.6c0,1.4-1,2.6-3,2.6
		h-25.3v16.9h24.5c2,0,3,0.9,3,2.6c0,1.4-1,2.6-3,2.6h-24.5v17.9h25.3c2,0,3,0.9,3,2.6c0,1.4-1,2.6-3,2.6H707.8z"/>
	<path id="XMLID_16_" d="M767.9,119.1h-12.1v15.8c0,2.1-0.9,3.1-2.7,3.1c-1.8,0-2.7-1-2.7-3.1V90.6c0-1.8,1.4-3.3,3.2-3.3h14.3
		c5.6,0,10.1,1.4,13.4,4.3c3.4,2.9,5,6.8,5,11.6c0,7.8-4.7,13.4-12.4,15.3l10.7,14.8c1.2,1.7,1.2,3-0.1,4.1c-1.2,0.9-3,0.8-4.2-0.7
		L767.9,119.1z M755.8,92.4V114h12.9c7.5,0,12.2-3.7,12.2-10.8c0-6.8-4.7-10.7-12.2-10.7H755.8z"/>
</g>
</svg>