<?xml version="1.0" encoding="utf-8"?>
<!-- Generator: Adobe Illustrator 19.0.0, SVG Export Plug-In . SVG Version: 6.00 Build 0)  -->
<svg version="1.1" id="Layer_1" xmlns="http://www.w3.org/2000/svg" xmlns:xlink="http://www.w3.org/1999/xlink" x="0px" y="0px"
	 viewBox="0 0 960 122.1" style="enable-background:new 0 0 960 122.1;" xml:space="preserve">
<g id="XMLID_3_">
	<path id="XMLID_4_" d="M37,17.7h20.8l28.3,85.6H69.6l-6.8-21.2H30l-6.7,21.2h-15L37,17.7z M33.8,70.5H59L46.5,30.7L33.8,70.5z"/>
	<path id="XMLID_7_" d="M90.8,40.7h14.5v9.9c3-6.1,9.9-11.3,20.2-11.3c12.6,0,21.4,7.3,21.4,24.5v39.4h-14.5V65.2
		c0-9.5-3.8-13.8-12.5-13.8c-8.1,0-14.7,5-14.7,15v36.9H90.8V40.7z"/>
	<path id="XMLID_9_" d="M152.3,73v-1c0-20,11.9-32.7,28.1-32.7c10.2,0,16.5,4.7,20,10.9V11.7h14.5v91.6h-14.5V92.8
		c-3.4,6.2-11.4,11.7-20.6,11.7C164.1,104.5,152.3,93.4,152.3,73z M200.9,72.3v-1c0-13.8-6.3-20.6-16.9-20.6
		c-10.7,0-16.9,7.4-16.9,21v1c0,13.8,6.9,20.4,16.3,20.4C193.5,93,200.9,86.3,200.9,72.3z"/>
	<path id="XMLID_12_" d="M225,40.7h14.5v11.7c4-7.9,9.8-12.6,20.4-12.7v13.5c-12.7,0.1-20.4,4.2-20.4,17.5v32.6H225V40.7z"/>
	<path id="XMLID_14_" d="M259.9,72.7v-1c0-19.4,13.3-32.3,31.1-32.3c15.6,0,29.6,9.2,29.6,31.6v4.2h-45.9
		c0.5,11.9,6.5,18.6,17.2,18.6c8.7,0,13.3-3.5,14.4-9.6h14c-2,13.2-12.7,20.4-28.7,20.4C273.2,104.5,259.9,92.4,259.9,72.7z
		 M306.3,65.5c-0.7-10.8-6.2-15.6-15.2-15.6c-8.7,0-14.6,5.9-16,15.6H306.3z M291.9,12.8h16l-12.5,18.6h-10.7L291.9,12.8z"/>
	<path id="XMLID_18_" d="M322.2,83.8h13.7c0.7,6.3,4,10.1,12.5,10.1c7.8,0,11.3-2.8,11.3-8c0-5.1-4.2-7.1-13.4-8.6
		c-16.5-2.6-22.6-7.3-22.6-19c0-12.6,11.7-18.8,23.5-18.8c12.8,0,23,4.8,24.5,18.9h-13.4c-1.2-5.7-4.4-8.4-11.1-8.4
		c-6.2,0-9.9,3-9.9,7.4c0,4.6,3,6.3,12.9,8c14.7,2.3,23.5,5.9,23.5,19.2c0,12.7-9,20-25,20C332.2,104.5,322.8,97.1,322.2,83.8z"/>
	<path id="XMLID_20_" d="M396.2,76.7h15.3c1.1,8.6,4.6,15.8,19,15.8c9.5,0,16.2-5.3,16.2-13.2s-4-10.9-17.8-13.2
		c-20.5-2.8-30.2-9-30.2-25c0-14,12-24.5,29.8-24.5c18.4,0,29.5,8.4,31.1,24.8H445c-1.6-9-6.7-12.8-16.5-12.8
		c-9.7,0-14.7,4.7-14.7,11.3c0,6.9,2.9,10.4,17.7,12.6C451.6,55.2,462,60.9,462,78c0,14.8-12.6,26.5-31.5,26.5
		C407.2,104.5,397.4,92.9,396.2,76.7z"/>
	<path id="XMLID_22_" d="M464.6,86c0-14.6,14.1-19.9,32.1-19.9h7.8v-3.2c0-8.4-2.9-12.6-11.4-12.6c-7.5,0-11.3,3.6-12,9.8h-14
		c1.2-14.6,12.8-20.7,26.8-20.7s25,5.7,25,22.9v41.1h-14.2v-7.7c-4.1,5.4-9.6,8.9-19.2,8.9C474,104.5,464.6,99,464.6,86z
		 M504.4,81.4v-6.2H497c-11,0-18.1,2.5-18.1,10.2c0,5.3,2.9,8.7,10.1,8.7C497.8,94.1,504.4,89.4,504.4,81.4z"/>
	<path id="XMLID_25_" d="M528.4,40.7h14.5v9.9c3-6.1,9.9-11.3,20.2-11.3c12.6,0,21.4,7.3,21.4,24.5v39.4H570V65.2
		c0-9.5-3.8-13.8-12.5-13.8c-8.1,0-14.7,5-14.7,15v36.9h-14.5V40.7z"/>
	<path id="XMLID_27_" d="M596.4,85.8V51.6H588V40.7h8.4V26.9h14.5v13.8h13.8v10.9h-13.8v32.9c0,5.5,2.6,8,7.2,8c2.9,0,5-0.4,7.1-1.2
		v11.5c-2.3,0.8-5.4,1.6-9.8,1.6C602.8,104.4,596.4,97.7,596.4,85.8z"/>
	<path id="XMLID_29_" d="M627,86c0-14.6,14.1-19.9,32.1-19.9h7.8v-3.2c0-8.4-2.9-12.6-11.4-12.6c-7.5,0-11.3,3.6-12,9.8h-14
		c1.2-14.6,12.8-20.7,26.8-20.7s25,5.7,25,22.9v41.1h-14.2v-7.7c-4.1,5.4-9.6,8.9-19.2,8.9C636.5,104.5,627,99,627,86z M666.9,81.4
		v-6.2h-7.4c-11,0-18.1,2.5-18.1,10.2c0,5.3,2.9,8.7,10.1,8.7C660.3,94.1,666.9,89.4,666.9,81.4z"/>
	<path id="XMLID_32_" d="M690.8,40.7h14.5v11.7c4-7.9,9.8-12.6,20.4-12.7v13.5c-12.7,0.1-20.4,4.2-20.4,17.5v32.6h-14.5V40.7z"/>
	<path id="XMLID_34_" d="M725.8,72.7v-1c0-19.4,13.8-32.3,32.2-32.3c18.3,0,32.1,12.8,32.1,32v1c0,19.5-13.8,32.2-32.2,32.2
		S725.8,91.7,725.8,72.7z M775.3,72.4v-0.8c0-12.9-6.5-20.8-17.2-20.8c-10.8,0-17.4,7.8-17.4,20.7v1c0,12.8,6.3,20.8,17.4,20.8
		C768.8,93.3,775.3,85.2,775.3,72.4z"/>
	<path id="XMLID_37_" d="M791.2,83.8h13.6c0.7,6.3,4,10.1,12.5,10.1c7.8,0,11.3-2.8,11.3-8c0-5.1-4.2-7.1-13.4-8.6
		c-16.5-2.6-22.6-7.3-22.6-19c0-12.6,11.7-18.8,23.5-18.8c12.8,0,23,4.8,24.5,18.9h-13.4c-1.2-5.7-4.4-8.4-11.1-8.4
		c-6.2,0-9.9,3-9.9,7.4c0,4.6,3,6.3,12.9,8c14.7,2.3,23.5,5.9,23.5,19.2c0,12.7-9,20-25,20C801.2,104.5,791.8,97.1,791.2,83.8z"/>
	<path id="XMLID_39_" d="M843.1,83.8h13.6c0.7,6.3,4,10.1,12.5,10.1c7.8,0,11.3-2.8,11.3-8c0-5.1-4.2-7.1-13.4-8.6
		c-16.5-2.6-22.6-7.3-22.6-19c0-12.6,11.7-18.8,23.5-18.8c12.8,0,23,4.8,24.5,18.9h-13.4c-1.2-5.7-4.4-8.4-11.1-8.4
		c-6.2,0-9.9,3-9.9,7.4c0,4.6,3,6.3,12.9,8c14.7,2.3,23.5,5.9,23.5,19.2c0,12.7-9,20-25,20C853.2,104.5,843.7,97.1,843.1,83.8z"/>
	<path id="XMLID_41_" d="M895.4,86c0-14.6,14.1-19.9,32.1-19.9h7.8v-3.2c0-8.4-2.9-12.6-11.4-12.6c-7.5,0-11.3,3.6-12,9.8h-14
		c1.2-14.6,12.8-20.7,26.8-20.7s25,5.7,25,22.9v41.1h-14.2v-7.7c-4.1,5.4-9.6,8.9-19.2,8.9C904.8,104.5,895.4,99,895.4,86z
		 M935.2,81.4v-6.2h-7.4c-11,0-18.1,2.5-18.1,10.2c0,5.3,2.9,8.7,10.1,8.7C928.6,94.1,935.2,89.4,935.2,81.4z"/>
</g>
</svg>
